<svg width="24" height="24" viewBox="0 0 24 24" fill="none" xmlns="http://www.w3.org/2000/svg">
<path d="M8 20C7.60218 20 7.22064 19.842 6.93934 19.5607C6.65804 19.2794 6.5 18.8978 6.5 18.5V6H1.25C1.05109 6 0.860322 6.07902 0.71967 6.21967C0.579018 6.36032 0.5 6.55109 0.5 6.75V22.5C0.5 22.8978 0.658035 23.2794 0.93934 23.5607C1.22064 23.842 1.60218 24 2 24H14C14.3978 24 14.7794 23.842 15.0607 23.5607C15.342 23.2794 15.5 22.8978 15.5 22.5V20H8Z" fill="white" fill-opacity="0.35"/>
<path d="M19 4.5H23.5L19 0V4.5Z" fill="white" fill-opacity="0.35"/>
<path d="M17.5 6V0H9.25C9.05109 0 8.86032 0.0790176 8.71967 0.21967C8.57902 0.360322 8.5 0.551088 8.5 0.75V16.5C8.5 16.8978 8.65804 17.2794 8.93934 17.5607C9.22064 17.842 9.60218 18 10 18H22C22.3978 18 22.7794 17.842 23.0607 17.5607C23.342 17.2794 23.5 16.8978 23.5 16.5V6H17.5Z" fill="white" fill-opacity="0.35"/>
</svg>
