<svg width="254" height="89" viewBox="0 0 254 89" fill="none" xmlns="http://www.w3.org/2000/svg">
<path d="M5.04 20.1H19.296V59.196H43.344V70.5H5.04V20.1ZM48.3373 31.476H62.0173V70.5H48.3373V31.476ZM55.1773 27.156C52.6813 27.156 50.6653 26.46 49.1293 25.068C47.5933 23.676 46.8253 21.948 46.8253 19.884C46.8253 17.82 47.5933 16.092 49.1293 14.7C50.6653 13.308 52.6813 12.612 55.1773 12.612C57.6733 12.612 59.6893 13.284 61.2253 14.628C62.7613 15.924 63.5293 17.604 63.5293 19.668C63.5293 21.828 62.7613 23.628 61.2253 25.068C59.6893 26.46 57.6733 27.156 55.1773 27.156ZM96.3236 30.828C101.172 30.828 105.06 32.268 107.988 35.148C110.964 38.028 112.452 42.372 112.452 48.18V70.5H98.7716V50.412C98.7716 45.084 96.6356 42.42 92.3636 42.42C90.0116 42.42 88.1156 43.188 86.6756 44.724C85.2836 46.26 84.5876 48.564 84.5876 51.636V70.5H70.9076V31.476H83.9396V35.724C85.4756 34.14 87.2996 32.94 89.4116 32.124C91.5236 31.26 93.8276 30.828 96.3236 30.828ZM138.752 56.82L134.72 60.924V70.5H121.04V17.076H134.72V45.084L148.688 31.476H164.888L148.688 48.18L166.256 70.5H149.696L138.752 56.82ZM170.4 17.076H184.08V70.5H170.4V17.076ZM234.082 31.476L217.234 72.084C215.266 76.884 212.866 80.244 210.034 82.164C207.202 84.132 203.746 85.116 199.666 85.116C197.602 85.116 195.514 84.78 193.402 84.108C191.338 83.484 189.658 82.644 188.362 81.588L193.114 72.012C193.882 72.732 194.794 73.284 195.85 73.668C196.954 74.1 198.058 74.316 199.162 74.316C200.458 74.316 201.514 74.052 202.33 73.524C203.194 72.996 203.914 72.156 204.49 71.004L187.786 31.476H201.826L211.402 55.308L221.05 31.476H234.082Z" fill="white"/>
<path d="M243.379 71.148C241.075 71.148 239.131 70.38 237.547 68.844C235.963 67.308 235.171 65.364 235.171 63.012C235.171 60.612 235.939 58.668 237.475 57.18C239.059 55.692 241.027 54.948 243.379 54.948C245.779 54.948 247.747 55.692 249.283 57.18C250.819 58.668 251.587 60.612 251.587 63.012C251.587 65.364 250.795 67.308 249.211 68.844C247.675 70.38 245.731 71.148 243.379 71.148Z" fill="#0F53FA"/>
</svg>
